<svg width="300" height="119" viewBox="0 0 300 119" fill="none" xmlns="http://www.w3.org/2000/svg">
<path d="M70.1944 81.879C70.8306 81.879 71.1487 82.2692 71.1487 83.0495C71.1487 83.8298 70.8836 84.6101 70.3534 85.3904C69.8586 86.1707 69.1164 86.9155 68.1267 87.6249C65.688 89.3274 63.0901 90.1786 60.3333 90.1786C57.6117 90.1786 55.4027 89.7707 53.7061 88.955C52.0096 88.1392 50.4368 87.0574 48.9876 85.7096C47.5385 84.3263 46.2131 82.748 45.0114 80.9746C43.8096 79.2011 42.6786 77.3568 41.6183 75.4415L38.4903 69.6956C34.8498 62.7437 31.7748 58.6826 29.2653 57.5121C22.0904 76.8425 14.4029 87.5717 6.20298 89.6998C5.67281 89.8417 5.08962 89.9126 4.45342 89.9126C3.78187 89.9126 3.18101 89.8062 2.65085 89.5934C2.08533 89.3806 1.60818 89.0968 1.21939 88.7421C0.406463 88.0682 0 87.3589 0 86.614C0 85.8337 0.282757 85.2308 0.848271 84.8052C6.96289 80.3007 13.1305 68.7025 19.3512 50.0106C22.9563 39.1217 25.4658 29.297 26.8796 20.5363C27.2684 18.0889 27.4628 16.2091 27.4628 14.8968C26.0136 14.9677 24.6529 15.3401 23.3805 16.014C22.1434 16.6879 21.0831 17.3086 20.1994 17.8761C19.3158 18.4436 18.5913 18.7274 18.0258 18.7274C17.4602 18.7274 16.8417 18.55 16.1702 18.1953C15.534 17.8406 14.9508 17.3973 14.4206 16.8653C13.1835 15.6239 12.565 14.5243 12.565 13.5667C12.565 12.609 12.8478 11.811 13.4133 11.1726C14.0141 10.5341 14.7564 9.98438 15.64 9.52329C16.5236 9.0622 17.4956 8.67204 18.5559 8.35283C19.6516 7.99814 20.7119 7.73213 21.7369 7.55479C23.6809 7.16463 25.3598 6.96956 26.7735 6.96956C28.1873 6.96956 29.6718 7.2001 31.227 7.66119C32.7821 8.08681 34.1252 8.72525 35.2562 9.57649C37.7304 11.3854 38.9674 13.6199 38.9674 16.28C38.9674 21.9195 37.2709 30.8576 33.8778 43.0942C32.7821 47.0667 31.5451 51.0392 30.1666 55.0116C38.72 48.379 43.898 44.3179 45.7006 42.8282C47.5385 41.3031 49.5531 39.4764 51.7445 37.3483C53.9359 35.2202 55.8622 33.0212 57.5234 30.7512C61.1285 25.7856 62.9311 20.8023 62.9311 15.8012C62.9311 13.9568 62.4539 12.343 61.4996 10.9598C61.2169 10.4987 61.0755 10.0553 61.0755 9.62969C61.0755 9.20407 61.2345 8.81392 61.5526 8.45923C61.9061 8.10455 62.3302 7.80307 62.825 7.55479C63.744 7.16463 64.9104 6.96956 66.3242 6.96956C67.7733 6.96956 69.0634 7.28877 70.1944 7.92721C71.3608 8.53017 72.3327 9.31048 73.1103 10.2681C74.6301 12.2189 75.3901 14.5598 75.3901 17.2909C75.3901 19.9865 74.8422 22.6112 73.7465 25.1649C72.6508 27.6832 71.184 30.0595 69.3461 32.2941C67.5435 34.5286 65.4582 36.6567 63.0901 38.6784C60.722 40.7001 58.2656 42.6331 55.7208 44.4775L47.9803 50.0106C45.4355 51.784 43.0674 53.5574 40.876 55.3308C43.4562 57.3525 46.4605 60.8817 49.8889 65.9182L53.9712 72.0365C56.9048 76.541 59.2729 79.5026 61.0755 80.9213C62.8781 82.3046 64.3625 82.9963 65.5289 82.9963C66.7306 82.9963 67.7026 82.8189 68.4448 82.4642C69.1871 82.0741 69.7703 81.879 70.1944 81.879Z" fill="#121212"/>
<path d="M125.12 79.2189C125.933 79.2189 126.339 79.6268 126.339 80.4425C126.339 83.5283 124.819 86.1175 121.78 88.2101C119.73 89.5579 117.326 90.2318 114.57 90.2318C112.308 90.2318 110.576 89.6998 109.374 88.6357C107.218 86.7205 106.14 84.3795 106.14 81.613C106.14 78.1016 107.607 72.7281 110.54 65.4926C105.097 72.87 101.28 77.7824 99.0886 80.2297C96.8972 82.6416 94.9886 84.5214 93.3628 85.8692C89.8283 88.7776 86.6296 90.2318 83.7667 90.2318C79.384 90.2318 76.4681 88.3343 75.0189 84.5391C74.5948 83.3687 74.3827 82.0386 74.3827 80.5489C74.3827 79.0238 74.6301 77.339 75.125 75.4947C75.6551 73.6148 76.3267 71.6641 77.1396 69.6424C77.9525 67.6207 78.8362 65.5458 79.7905 63.4177L82.6534 57.0333C86.3292 48.8401 87.69 43.9809 86.7357 42.4558C86.3115 41.7819 85.5163 41.108 84.3499 40.4341C83.9258 40.1858 83.7137 39.7602 83.7137 39.1572C83.7137 38.5188 83.9611 37.9158 84.4559 37.3483C84.9861 36.7808 85.6577 36.2843 86.4706 35.8586C88.2025 35.0429 89.9344 34.635 91.6662 34.635C93.3981 34.635 94.7059 34.8301 95.5895 35.2202C96.5085 35.5749 97.2507 36.036 97.8162 36.6035C98.9826 37.7739 99.5658 39.0685 99.5658 40.4873C99.5658 41.906 99.336 43.5021 98.8765 45.2755C98.4171 47.0135 97.8162 48.911 97.074 50.9682C96.3317 53.0254 95.5188 55.1535 94.6352 57.3525C92.1964 63.0984 90.5529 66.8936 89.7046 68.7379L87.743 72.8345C86.6473 75.2819 86.0995 77.0021 86.0995 77.9952C86.0995 78.9883 86.2585 79.6977 86.5766 80.1233C86.8947 80.5135 87.4602 80.7085 88.2732 80.7085C89.1214 80.7085 90.0934 80.3184 91.1891 79.5381C92.2848 78.7578 93.4865 77.7115 94.7942 76.3991C96.102 75.0868 97.4628 73.5794 98.8765 71.8769C100.29 70.1389 101.669 68.3478 103.012 66.5034C105.663 62.8856 107.607 59.9772 108.844 57.7782C116.337 44.4775 120.331 37.5257 120.826 36.9227C121.957 35.3976 123.105 34.635 124.272 34.635C125.473 34.635 126.516 34.7768 127.4 35.0606C128.283 35.3089 129.043 35.6813 129.679 36.1779C131.164 37.2774 131.641 38.3769 131.111 39.4764C122.487 57.5299 117.839 68.8798 117.167 73.5262C116.991 75.1223 116.902 76.2218 116.902 76.8247C116.902 79.5203 117.715 80.8681 119.341 80.8681C120.861 80.8681 122.116 80.6021 123.105 80.0701C124.095 79.5026 124.766 79.2189 125.12 79.2189Z" fill="#121212"/>
<path d="M170.874 90.1786C162.85 90.1786 156.453 82.5352 151.681 67.2483C149.808 70.7242 148.253 73.8809 147.016 76.7183L143.835 83.9539C142.916 85.9401 142.05 87.483 141.237 88.5825C140.459 89.6821 139.576 90.2318 138.586 90.2318C137.597 90.2318 136.695 90.0545 135.882 89.6998C135.069 89.3806 134.363 88.955 133.762 88.4229C132.525 87.2879 131.906 86.0465 131.906 84.6987C131.906 84.1667 132.277 83.1204 133.019 81.5598L135.14 77.2504C141.75 63.595 147.74 46.2864 153.113 25.3245C155.092 17.5924 156.524 10.6405 157.407 4.46903C157.796 1.48968 159.245 0 161.755 0C163.239 0 164.476 0.390153 165.466 1.17046C167.374 2.6956 168.293 4.34489 168.223 6.11831C168.152 7.85627 167.905 9.82477 167.48 12.0238C167.092 14.2229 166.561 16.6347 165.89 19.2594C165.218 21.8486 164.458 24.5619 163.61 27.3994C161.313 34.8123 159.599 40.0971 158.468 43.2538L153.484 57.0333C152.848 58.6649 152.353 59.8531 151.999 60.5979C160.199 57.3348 166.349 53.6461 170.449 49.5317C172.924 47.0489 174.161 44.7258 174.161 42.5622C174.161 41.4627 173.789 40.6646 173.047 40.1681C172.34 39.6715 171.846 39.2991 171.563 39.0508C171.315 38.7671 171.298 38.2882 171.51 37.6143C171.757 36.905 172.429 36.2311 173.524 35.5926C174.62 34.9542 175.945 34.635 177.501 34.635C179.056 34.635 180.346 34.7768 181.371 35.0606C182.431 35.3443 183.35 35.7877 184.128 36.3907C185.86 37.6321 186.726 39.3878 186.726 41.6577C186.726 43.9277 186.248 46.0204 185.294 47.9357C184.34 49.8155 182.855 51.6421 180.841 53.4155C176.847 56.8205 170.449 60.1191 161.649 63.3112C162.744 68.0286 164.759 72.1784 167.693 75.7607C170.485 79.1657 173.047 80.8681 175.38 80.8681C176.617 80.8681 177.677 80.6553 178.561 80.2297L180.47 79.2721C180.858 79.0593 181.229 78.9529 181.583 78.9529C182.467 78.9529 182.908 79.4849 182.908 80.5489C182.908 81.4711 182.749 82.2869 182.431 82.9963C182.113 83.6702 181.654 84.3973 181.053 85.1776C180.487 85.9579 179.745 86.7204 178.826 87.4653C176.529 89.2742 173.878 90.1786 170.874 90.1786Z" fill="#121212"/>
<path d="M224.951 90.1786C216.928 90.1786 210.53 82.5352 205.759 67.2483C203.885 70.7242 202.33 73.8809 201.093 76.7183L197.912 83.9539C196.993 85.9401 196.127 87.483 195.314 88.5825C194.537 89.6821 193.653 90.2318 192.663 90.2318C191.674 90.2318 190.773 90.0545 189.96 89.6998C189.147 89.3806 188.44 88.955 187.839 88.4229C186.602 87.2879 185.983 86.0465 185.983 84.6987C185.983 84.1667 186.354 83.1204 187.097 81.5598L189.217 77.2504C195.827 63.595 201.818 46.2864 207.19 25.3245C209.169 17.5924 210.601 10.6405 211.484 4.46903C211.873 1.48968 213.322 0 215.832 0C217.316 0 218.553 0.390153 219.543 1.17046C221.452 2.6956 222.371 4.34489 222.3 6.11831C222.229 7.85627 221.982 9.82477 221.558 12.0238C221.169 14.2229 220.639 16.6347 219.967 19.2594C219.296 21.8486 218.536 24.5619 217.687 27.3994C215.39 34.8123 213.676 40.0971 212.545 43.2538L207.561 57.0333C206.925 58.6649 206.43 59.8531 206.077 60.5979C214.277 57.3348 220.427 53.6461 224.527 49.5317C227.001 47.0489 228.238 44.7258 228.238 42.5622C228.238 41.4627 227.867 40.6646 227.124 40.1681C226.418 39.6715 225.923 39.2991 225.64 39.0508C225.393 38.7671 225.375 38.2882 225.587 37.6143C225.834 36.905 226.506 36.2311 227.602 35.5926C228.697 34.9542 230.023 34.635 231.578 34.635C233.133 34.635 234.423 34.7768 235.448 35.0606C236.508 35.3443 237.427 35.7877 238.205 36.3907C239.937 37.6321 240.803 39.3878 240.803 41.6577C240.803 43.9277 240.326 46.0204 239.371 47.9357C238.417 49.8155 236.933 51.6421 234.918 53.4155C230.924 56.8205 224.527 60.1191 215.726 63.3112C216.822 68.0286 218.836 72.1784 221.77 75.7607C224.562 79.1657 227.124 80.8681 229.457 80.8681C230.694 80.8681 231.755 80.6553 232.638 80.2297L234.547 79.2721C234.936 79.0593 235.307 78.9529 235.66 78.9529C236.544 78.9529 236.986 79.4849 236.986 80.5489C236.986 81.4711 236.827 82.2869 236.508 82.9963C236.19 83.6702 235.731 84.3973 235.13 85.1776C234.565 85.9579 233.822 86.7204 232.903 87.4653C230.606 89.2742 227.955 90.1786 224.951 90.1786Z" fill="#121212"/>
<path d="M243.825 84.5391C243.401 83.3687 243.189 82.0386 243.189 80.5489C243.189 79.0238 243.436 77.339 243.931 75.4947C244.461 73.6148 245.133 71.6641 245.945 69.6424C246.758 67.6207 247.642 65.5458 248.596 63.4177L251.459 57.0333C255.135 48.8401 256.496 43.9809 255.542 42.4558C255.117 41.7819 254.322 41.108 253.156 40.4341C252.732 40.1858 252.52 39.7602 252.52 39.1572C252.52 38.5188 252.767 37.9158 253.262 37.3483C253.792 36.7808 254.464 36.2843 255.276 35.8586C257.008 35.0429 258.74 34.635 260.472 34.635C262.204 34.635 263.512 34.8301 264.395 35.2202C265.314 35.5749 266.057 36.036 266.622 36.6035C267.788 37.7739 268.372 39.0685 268.372 40.4873C268.372 41.906 268.142 43.5021 267.682 45.2755C267.223 47.0135 266.622 48.911 265.88 50.9682C265.138 53.0254 264.325 55.1535 263.441 57.3525C261.002 63.0984 259.359 66.8936 258.51 68.7379L256.549 72.8345C255.453 75.2819 254.905 77.0021 254.905 77.9952C254.905 78.9883 255.064 79.6977 255.382 80.1233C255.701 80.5135 256.266 80.7085 257.079 80.7085C257.927 80.7085 258.846 80.3893 259.836 79.7509C260.861 79.1125 261.957 78.2612 263.123 77.1972C264.289 76.1331 265.491 74.9094 266.728 73.5262C268.001 72.1074 269.238 70.6355 270.439 69.1103C273.585 65.2088 275.918 61.857 277.438 59.055C285.072 44.9386 289.119 37.5611 289.578 36.9227C290.745 35.3976 291.911 34.635 293.078 34.635C294.279 34.635 295.322 34.7768 296.206 35.0606C297.089 35.3089 297.849 35.6813 298.485 36.1779C299.899 37.2064 300.323 38.3592 299.758 39.636C299.227 40.9129 298.574 42.6686 297.796 44.9031C291.081 64.4462 286.715 76.6297 284.701 81.4534C282.722 86.2771 280.99 90.1432 279.505 93.0516C278.021 95.9955 276.271 98.9571 274.257 101.936C272.277 104.916 270.157 107.629 267.894 110.076C262.734 115.61 257.892 118.571 253.368 118.961C251.636 119.103 250.258 118.855 249.233 118.216C247.465 117.152 246.582 116.142 246.582 115.184C246.582 114.226 247.377 113.552 248.967 113.162C250.593 112.808 252.254 112.063 253.951 110.928C255.683 109.828 257.344 108.534 258.935 107.044C263.6 102.575 267.223 97.7157 269.803 92.4663C271.994 87.8554 273.762 83.4928 275.105 79.3785L279.24 66.7162C278.215 67.9576 277.084 69.4118 275.847 71.0788L272.03 76.1863C268.707 80.4071 265.951 83.4041 263.759 85.1776C259.588 88.5471 255.86 90.2318 252.573 90.2318C248.19 90.2318 245.274 88.3343 243.825 84.5391Z" fill="#121212"/>
</svg>
